<svg width="32" height="27" viewBox="0 0 32 27" fill="none" xmlns="http://www.w3.org/2000/svg">
<path d="M29.0297 0.350708H3.03548C2.40874 0.350708 1.80767 0.596994 1.3645 1.03539C0.921333 1.47378 0.672363 2.06836 0.672363 2.68834V23.727C0.672363 24.347 0.921333 24.9416 1.3645 25.38C1.80767 25.8184 2.40874 26.0647 3.03548 26.0647H5.01458C5.23832 26.0653 5.45751 26.0023 5.64605 25.8831C5.83459 25.764 5.98453 25.5937 6.07798 25.3926C6.6561 24.1958 7.56485 23.1852 8.69915 22.4778C9.83346 21.7703 11.147 21.3949 12.4879 21.3949C13.8288 21.3949 15.1424 21.7703 16.2767 22.4778C17.411 23.1852 18.3197 24.1958 18.8979 25.3926C18.9913 25.5937 19.1413 25.764 19.3298 25.8831C19.5183 26.0023 19.7375 26.0653 19.9613 26.0647H29.0297C29.6564 26.0647 30.2575 25.8184 30.7007 25.38C31.1439 24.9416 31.3928 24.347 31.3928 23.727V2.68834C31.3928 2.06836 31.1439 1.47378 30.7007 1.03539C30.2575 0.596994 29.6564 0.350708 29.0297 0.350708ZM8.94326 15.5453C8.94326 14.8518 9.15115 14.1739 9.54064 13.5972C9.93013 13.0206 10.4837 12.5712 11.1314 12.3058C11.7791 12.0404 12.4919 11.971 13.1795 12.1063C13.8671 12.2416 14.4987 12.5755 14.9944 13.0659C15.4901 13.5563 15.8277 14.1811 15.9645 14.8613C16.1013 15.5414 16.0311 16.2465 15.7628 16.8872C15.4945 17.5279 15.0402 18.0755 14.4572 18.4608C13.8743 18.8461 13.189 19.0518 12.4879 19.0518C11.549 19.0479 10.6497 18.6773 9.98576 18.0205C9.32185 17.3638 8.94714 16.4741 8.94326 15.5453ZM29.0297 23.727H20.6702C19.684 22.0487 18.1987 20.712 16.4166 19.8992C17.311 19.1114 17.9423 18.0732 18.2267 16.9224C18.5111 15.7717 18.4352 14.5625 18.0092 13.4554C17.5831 12.3482 16.8269 11.3953 15.8409 10.7229C14.8548 10.0505 13.6855 9.69047 12.4879 9.69047C11.2903 9.69047 10.121 10.0505 9.13498 10.7229C8.14895 11.3953 7.39277 12.3482 6.96669 13.4554C6.54061 14.5625 6.46475 15.7717 6.74916 16.9224C7.03358 18.0732 7.66483 19.1114 8.55925 19.8992C6.77717 20.712 5.29183 22.0487 4.30565 23.727H3.03548V2.68834H29.0297V23.727ZM5.39859 8.53243V6.19479C5.39859 5.8848 5.52307 5.58751 5.74466 5.36831C5.96624 5.14912 6.26678 5.02598 6.58014 5.02598H25.485C25.7984 5.02598 26.0989 5.14912 26.3205 5.36831C26.5421 5.58751 26.6666 5.8848 26.6666 6.19479V20.2206C26.6666 20.5306 26.5421 20.8279 26.3205 21.0471C26.0989 21.2663 25.7984 21.3894 25.485 21.3894H23.1219C22.8086 21.3894 22.508 21.2663 22.2864 21.0471C22.0649 20.8279 21.9404 20.5306 21.9404 20.2206C21.9404 19.9106 22.0649 19.6133 22.2864 19.3941C22.508 19.1749 22.8086 19.0518 23.1219 19.0518H24.3035V7.36361H7.7617V8.53243C7.7617 8.84242 7.63722 9.13971 7.41563 9.3589C7.19405 9.5781 6.89351 9.70124 6.58014 9.70124C6.26678 9.70124 5.96624 9.5781 5.74466 9.3589C5.52307 9.13971 5.39859 8.84242 5.39859 8.53243Z" fill="white"/>
</svg>
