<svg width="21" height="15" viewBox="0 0 21 15" fill="none" xmlns="http://www.w3.org/2000/svg">
<path d="M3.31542 10.671C2.933 10.4414 2.74743 10.1195 2.7355 9.71032C2.71628 9.04334 2.72688 8.37496 2.72622 7.70728C2.72622 7.09806 2.72423 6.48884 2.7302 5.87961C2.73152 5.75566 2.69308 5.6972 2.58439 5.64508C1.85004 5.29434 1.12099 4.93162 0.387969 4.57736C0.134128 4.4541 0.00753895 4.23929 0.000248487 3.95616C-0.00637921 3.66317 0.119547 3.4385 0.381341 3.31595C0.446955 3.28566 0.513895 3.2582 0.581497 3.23355C3.03706 2.33486 5.49262 1.43616 7.94884 0.538178C8.23052 0.435349 8.51419 0.338156 8.79321 0.228284C9.58124 -0.0809048 10.364 -0.0682275 11.158 0.219128C13.3922 1.02696 15.631 1.82142 17.8679 2.62151C18.4372 2.82505 19.0091 3.02296 19.5758 3.23636C20.0093 3.39976 20.1617 3.90334 19.8886 4.29282C19.8018 4.41607 19.656 4.50763 19.5208 4.57454C18.4856 5.08657 17.4463 5.58803 16.4084 6.09372C14.7489 6.90156 13.0893 7.70939 11.4297 8.51652C10.6529 8.89403 9.85033 8.99123 9.0285 8.71796C8.71434 8.61372 8.41477 8.45666 8.11255 8.31509C7.66982 8.10732 7.2304 7.89181 6.77044 7.70939C6.84599 7.78053 6.91824 7.85448 6.99644 7.92139C7.38615 8.25734 7.76857 8.60315 8.16955 8.92291C9.16966 9.72018 10.2513 9.86104 11.3939 9.31168C13.2928 8.3982 15.1869 7.47275 17.0831 6.55222C17.1415 6.52405 17.2011 6.4994 17.2893 6.46066V6.67829C17.2893 7.63333 17.282 8.58836 17.2919 9.54269C17.2972 10.1033 17.0626 10.4843 16.6006 10.7372C14.7223 11.7641 12.8454 12.7931 10.9711 13.8277C10.3355 14.1784 9.7085 14.1897 9.07091 13.8389C7.91504 13.203 6.75785 12.5712 5.59866 11.9423C5.46743 11.8711 5.41176 11.7887 5.41242 11.6211C5.42038 10.2329 5.41905 8.84473 5.41309 7.45655C5.41309 7.30442 5.4555 7.23047 5.58938 7.17201C6.91492 6.59237 8.23781 6.00357 9.56335 5.42322C9.66078 5.38097 9.7761 5.36688 9.88214 5.36829C10.4481 5.37392 10.9916 5.29434 11.4847 4.96824C12.1906 4.50059 12.2105 3.6026 11.5245 3.10255C11.0373 2.74758 10.4873 2.65884 9.91594 2.67292C9.3897 2.6856 8.88401 2.79758 8.45122 3.13987C8.33457 3.23214 8.23383 3.3561 8.15298 3.48498C8.07344 3.61176 7.98662 3.70191 7.85075 3.76177C6.38206 4.4041 4.91667 5.05417 3.44798 5.69579C3.33067 5.7472 3.31277 5.82256 3.31343 5.93807C3.31608 7.4319 3.31476 8.92572 3.31476 10.4196C3.31476 10.4886 3.31476 10.5583 3.31476 10.6724L3.31542 10.671Z" fill="black"/>
</svg>
