<svg width="17" height="18" viewBox="0 0 17 18" fill="none" xmlns="http://www.w3.org/2000/svg">
<rect width="17" height="17" transform="translate(0 0.5)" />
<path fill-rule="evenodd" clip-rule="evenodd" d="M8.50008 15.375C12.0209 15.375 14.8751 12.5207 14.8751 8.99996C14.8751 5.47919 12.0209 2.62496 8.50008 2.62496C4.97931 2.62496 2.12508 5.47919 2.12508 8.99996C2.12508 12.5207 4.97931 15.375 8.50008 15.375ZM8.50008 16.0833C12.4122 16.0833 15.5834 12.9121 15.5834 8.99996C15.5834 5.08783 12.4122 1.91663 8.50008 1.91663C4.58796 1.91663 1.41675 5.08783 1.41675 8.99996C1.41675 12.9121 4.58796 16.0833 8.50008 16.0833Z" fill="#2B2A85"/>
<path d="M4.25 13.1189C4.25 12.753 4.52342 12.4438 4.8875 12.4035C7.6199 12.101 9.3925 12.1283 12.1189 12.4102C12.255 12.4245 12.3841 12.4781 12.4902 12.5645C12.5964 12.651 12.6751 12.7664 12.7167 12.8969C12.7583 13.0273 12.7611 13.167 12.7246 13.2989C12.6881 13.4309 12.614 13.5493 12.5113 13.6399C9.29369 16.4445 7.45485 16.4059 4.47667 13.6427C4.33146 13.5081 4.25 13.3169 4.25 13.1192V13.1189Z" fill="#2B2A85"/>
<path fill-rule="evenodd" clip-rule="evenodd" d="M12.0826 12.7623C9.37779 12.4825 7.63069 12.4563 4.92627 12.7556C4.83725 12.766 4.75518 12.8088 4.69578 12.8759C4.63638 12.943 4.60382 13.0297 4.60433 13.1193C4.60433 13.2206 4.64648 13.3166 4.71766 13.3832C6.19383 14.7524 7.31229 15.3711 8.4056 15.375C9.50281 15.3789 10.6815 14.7651 12.2788 13.3733C12.3295 13.3281 12.366 13.2692 12.3839 13.2036C12.4018 13.1381 12.4002 13.0688 12.3795 13.0041C12.3587 12.9394 12.3196 12.8822 12.2668 12.8393C12.2141 12.7965 12.1501 12.7698 12.0826 12.7627V12.7623ZM4.84871 12.0515C7.60979 11.7459 9.40825 11.7735 12.1559 12.0579C12.3607 12.0793 12.5548 12.1599 12.7145 12.2899C12.8742 12.4199 12.9925 12.5937 13.055 12.7899C13.1175 12.9861 13.1214 13.1963 13.0662 13.3947C13.0111 13.5931 12.8993 13.7711 12.7445 13.907C11.1242 15.3194 9.77481 16.0887 8.40348 16.0833C7.02825 16.0784 5.73837 15.296 4.23635 13.9024C4.12881 13.8022 4.04308 13.681 3.98452 13.5462C3.92596 13.4114 3.89582 13.2659 3.896 13.119C3.89548 12.8549 3.9924 12.6 4.1682 12.4029C4.34399 12.2059 4.5863 12.0806 4.84871 12.0512V12.0515Z" fill="#2B2A85"/>
<path d="M11.3334 7.58333C11.3334 8.33478 11.0349 9.05545 10.5036 9.5868C9.9722 10.1182 9.25153 10.4167 8.50008 10.4167C7.74863 10.4167 7.02797 10.1182 6.49661 9.5868C5.96526 9.05545 5.66675 8.33478 5.66675 7.58333C5.66675 6.83189 5.96526 6.11122 6.49661 5.57986C7.02797 5.04851 7.74863 4.75 8.50008 4.75C9.25153 4.75 9.9722 5.04851 10.5036 5.57986C11.0349 6.11122 11.3334 6.83189 11.3334 7.58333Z" fill="#2B2A85"/>
<path fill-rule="evenodd" clip-rule="evenodd" d="M8.50008 9.70833C9.06367 9.70833 9.60417 9.48445 10.0027 9.08594C10.4012 8.68742 10.6251 8.14692 10.6251 7.58333C10.6251 7.01975 10.4012 6.47925 10.0027 6.08073C9.60417 5.68222 9.06367 5.45833 8.50008 5.45833C7.9365 5.45833 7.39599 5.68222 6.99748 6.08073C6.59896 6.47925 6.37508 7.01975 6.37508 7.58333C6.37508 8.14692 6.59896 8.68742 6.99748 9.08594C7.39599 9.48445 7.9365 9.70833 8.50008 9.70833ZM8.50008 10.4167C9.25153 10.4167 9.9722 10.1182 10.5036 9.5868C11.0349 9.05545 11.3334 8.33478 11.3334 7.58333C11.3334 6.83189 11.0349 6.11122 10.5036 5.57986C9.9722 5.04851 9.25153 4.75 8.50008 4.75C7.74863 4.75 7.02797 5.04851 6.49661 5.57986C5.96526 6.11122 5.66675 6.83189 5.66675 7.58333C5.66675 8.33478 5.96526 9.05545 6.49661 9.5868C7.02797 10.1182 7.74863 10.4167 8.50008 10.4167Z" fill="#2B2A85"/>
</svg>
