<svg width="33" height="32" viewBox="0 0 33 32" fill="none" xmlns="http://www.w3.org/2000/svg">
<path d="M29.2923 24.1971C30.1304 24.1971 30.9343 23.8687 31.527 23.2842C32.1197 22.6997 32.4527 21.9069 32.4527 21.0802V3.93727C32.4527 3.11062 32.1197 2.31782 31.527 1.73329C30.9343 1.14876 30.1304 0.820374 29.2923 0.820374H12.6368C13.1899 1.77103 13.4901 2.84636 13.4901 3.93727H29.2923V21.0802H15.0704V24.1971M21.3912 8.61262V11.7295H11.9099V31.9894H8.74951V22.6387H5.58909V31.9894H2.42867V19.5218H0.0583496V11.7295C0.0583496 10.9029 0.391322 10.1101 0.984016 9.52554C1.57671 8.941 2.38058 8.61262 3.21877 8.61262H21.3912ZM10.3297 3.93727C10.3297 4.76392 9.99675 5.55672 9.40406 6.14125C8.81136 6.72578 8.0075 7.05417 7.1693 7.05417C6.3311 7.05417 5.52724 6.72578 4.93454 6.14125C4.34185 5.55672 4.00888 4.76392 4.00888 3.93727C4.00888 3.11062 4.34185 2.31782 4.93454 1.73329C5.52724 1.14876 6.3311 0.820374 7.1693 0.820374C8.0075 0.820374 8.81136 1.14876 9.40406 1.73329C9.99675 2.31782 10.3297 3.11062 10.3297 3.93727Z" fill="white"/>
</svg>
