<svg width="22" height="24" viewBox="0 0 22 24" fill="none" xmlns="http://www.w3.org/2000/svg">
<path d="M11.7439 0.534329C7.0159 -0.0892754 6.09657 4.43186 6.2279 6.77038C5.91268 6.77038 5.04591 9.36874 4.65192 10.6679C5.04592 11.4474 7.40993 12.6167 7.40993 13.0064C7.40993 13.3962 5.04592 14.5654 4.25792 14.5654C3.46992 14.5654 2.15658 15.345 1.49992 15.7347C0.869514 16.0465 0.711914 19.2425 0.711914 20.8015C7.64633 25.7903 17.5226 22.8802 21.594 20.8015C22.382 19.2425 20.806 15.2865 20.018 14.9552C19.3693 14.6825 16.3406 13.7859 14.8959 13.0064C15.8415 13.3182 17.3913 11.5773 18.048 10.6679L16.4719 7.16014C16.1567 1.8595 13.1886 0.534333 11.7439 0.534329Z" fill="white"/>
</svg>
