<svg width="11" height="12" viewBox="0 0 11 12" fill="none" xmlns="http://www.w3.org/2000/svg">
<path d="M4.81687 1.26884C4.87977 1.13585 4.97705 1.02388 5.09772 0.945584C5.21839 0.867292 5.35763 0.8258 5.49971 0.8258C5.64178 0.8258 5.78102 0.867292 5.90169 0.945584C6.02236 1.02388 6.11964 1.13585 6.18254 1.26884L7.46953 3.9912L10.3473 4.42756C10.4879 4.44874 10.6201 4.5106 10.7289 4.60614C10.8376 4.70168 10.9186 4.82709 10.9626 4.96817C11.0067 5.10926 11.012 5.26039 10.978 5.40447C10.944 5.54855 10.8721 5.67982 10.7703 5.78344L8.68712 7.90338L9.17873 10.8952C9.20263 11.0413 9.18688 11.1916 9.13328 11.3289C9.07968 11.4662 8.99036 11.5851 8.8754 11.6722C8.76045 11.7593 8.62446 11.8111 8.48278 11.8218C8.3411 11.8325 8.1994 11.8015 8.07367 11.7325L5.49971 10.321L2.92574 11.7343C2.79988 11.8035 2.65798 11.8344 2.51611 11.8237C2.37425 11.813 2.23809 11.7611 2.12307 11.6737C2.00805 11.5864 1.91876 11.4671 1.86531 11.3295C1.81187 11.1919 1.7964 11.0415 1.82068 10.8952L2.31144 7.90338L0.22993 5.78432C0.128204 5.68076 0.0562604 5.54956 0.0222333 5.40555C-0.0117939 5.26153 -0.00654718 5.11045 0.0373801 4.96939C0.0813074 4.82833 0.162163 4.70291 0.270805 4.60731C0.379447 4.51172 0.511543 4.44976 0.652155 4.42844L3.52904 3.99208L4.81687 1.26884Z" fill="#9D1C7F"/>
</svg>
